<svg width="16" height="2" viewBox="0 0 16 2" fill="none" xmlns="http://www.w3.org/2000/svg">
    <path d="M0.86303 2H15.1369C15.2921 2 15.4359 1.95531 15.5685 1.86592C15.701 1.77653 15.806 1.65549 15.8836 1.50279C15.9612 1.35009 16 1.18063 16 0.994413C16 0.815642 15.9612 0.649907 15.8836 0.497207C15.806 0.344506 15.701 0.223463 15.5685 0.134078C15.4359 0.0446928 15.2921 0 15.1369 0H0.86303C0.707878 0 0.565656 0.0446928 0.436363 0.134078C0.307071 0.223463 0.20202 0.344506 0.121212 0.497207C0.0404039 0.649907 0 0.815642 0 0.994413C0 1.18063 0.0404039 1.35009 0.121212 1.50279C0.20202 1.65549 0.307071 1.77653 0.436363 1.86592C0.565656 1.95531 0.707878 2 0.86303 2Z" fill="#E92020"/>
</svg>
